<?xml version="1.0" encoding="iso-8859-1"?>
<!-- Generator: Adobe Illustrator 19.0.0, SVG Export Plug-In . SVG Version: 6.00 Build 0)  -->
<svg version="1.1" id="Layer_1" xmlns="http://www.w3.org/2000/svg" xmlns:xlink="http://www.w3.org/1999/xlink" x="0px" y="0px"
	 viewBox="0 0 512 512" style="enable-background:new 0 0 512 512;" xml:space="preserve">
<g>
	<g>
		<path d="M418.383,239.598c-3.678,0-7.355,0.242-11,0.671l-13.49-32.652c-1.485-3.594-3.8-6.82-6.719-9.377
			c-0.727-0.822-1.507-1.58-2.322-2.293l6.303-57.351c7.638-5.299,12.653-14.125,12.653-24.105
			c0-16.169-13.156-29.325-29.325-29.325h-36.775c-16.167,0-29.323,13.155-29.323,29.325c0,16.17,13.156,29.325,29.325,29.325
			h12.117l-5.044,45.897H182.839l-3.672-26.956c15.943-1.501,22.26-3.771,25.802-5.858c0.027-0.017,0.056-0.033,0.083-0.051
			c10.08-5.198,16.307-15.371,16.307-26.736c0-15.245-11.573-27.303-28.8-30.007c-7.512-1.18-15.243-2.84-22.718-4.446
			c-15.164-3.258-30.842-6.626-46.963-6.626c-20.79,0-37.704,16.914-37.704,37.704c0,20.79,16.914,37.704,37.704,37.704l7.749,0.011
			c0.003,0-0.001,0,0.002,0c2.762,0,5.392-0.014,7.949-0.033l4.237,31.102c-2.323,1.913-4.329,4.242-5.867,6.926l-22.607,39.464
			c-6.777-1.537-13.721-2.316-20.727-2.316C41.996,239.598,0,281.594,0,333.215c0,51.62,41.996,93.617,93.617,93.617
			c21.129,0,41.859-7.27,58.371-20.472c14.485-11.58,25.263-27.321,30.85-44.836h11.943c7.999,9.333,19.857,15.264,33.083,15.264
			c15.526,0,29.174-8.17,36.893-20.43h11.129c4.663,0,8.441-3.778,8.441-8.441c0-4.663-3.778-8.441-8.441-8.441h-4.905
			c0.296-2.045,0.456-4.134,0.456-6.259c0-0.277-0.016-0.549-0.021-0.825l87.81-76.047l1.356,3.283
			c-22.535,17.722-35.813,44.777-35.813,73.588c0,51.62,41.997,93.617,93.617,93.617S512,384.836,512,333.216
			C512,281.594,470.004,239.598,418.383,239.598z M337.711,126.934c-6.861,0-12.442-5.581-12.442-12.442
			c0-6.861,5.581-12.442,12.442-12.442h36.774c6.861,0,12.442,5.581,12.442,12.442c0,6.861-5.581,12.442-12.442,12.442H337.711z
			 M373.599,143.816l-5.046,45.906c-0.106-0.002-0.209-0.009-0.315-0.009h-6.472l5.044-45.897H373.599z M130.629,147.571
			l-7.749-0.011c-11.481,0-20.822-9.341-20.822-20.822s9.341-20.822,20.822-20.822c14.328,0,28.457,3.035,43.417,6.249
			c7.703,1.656,15.668,3.366,23.646,4.619c6.706,1.053,14.536,5.175,14.536,13.329c0,5.097-2.868,9.655-7.482,11.891
			c-0.332,0.161-0.648,0.342-0.951,0.539C193.208,143.944,180.965,147.571,130.629,147.571z M165.8,189.714h-6.735l-3.488-25.606
			c2.343-0.072,4.576-0.154,6.701-0.245L165.8,189.714z M93.617,409.948c-42.312,0-76.734-34.422-76.734-76.733
			c0-42.312,34.422-76.734,76.734-76.734c3.988,0,7.948,0.314,11.854,0.922l-6.066,10.59c-1.923-0.169-3.856-0.258-5.787-0.258
			c-36.105,0.001-65.479,29.375-65.479,65.48s29.374,65.479,65.479,65.479c25.196,0,48.208-14.717,59.024-37.17h12.305
			C153.51,390.5,125.556,409.948,93.617,409.948z M67.606,348.899c4.514,7.787,12.911,12.625,21.91,12.625h43.566
			c-9.006,12.482-23.659,20.287-39.466,20.287c-26.797,0-48.597-21.8-48.597-48.596c0-25.506,19.756-46.47,44.766-48.431
			l-22.243,38.83C63.068,331.422,63.093,341.11,67.606,348.899z M253.804,339.474h-22.94c-4.663,0-8.441,3.778-8.441,8.441
			c0,4.663,3.778,8.441,8.441,8.441h10.269c-3.912,2.252-8.441,3.548-13.271,3.548c-14.717,0-26.69-11.973-26.69-26.69
			s11.973-26.69,26.69-26.69s26.69,11.973,26.69,26.69C254.553,335.371,254.289,337.465,253.804,339.474z M202.617,240.361h97.699
			l-59.265,51.327c-3.231-1.029-6.627-1.681-10.134-1.927L202.617,240.361z M357.027,235.912l-90.099,78.03
			c-2.537-5.121-6.052-9.673-10.298-13.414l71.854-62.229c2.664-2.307,3.614-6.027,2.383-9.329
			c-1.231-3.303-4.384-5.492-7.909-5.492H188.053c-3.011,0-5.794,1.604-7.303,4.208c-1.509,2.604-1.518,5.817-0.02,8.429
			l32.178,56.171c-5.383,1.973-10.272,4.984-14.424,8.783l-32.233-56.266c-1.504-2.626-4.298-4.245-7.325-4.245
			c-3.025,0-5.821,1.62-7.325,4.245l-40.28,70.318c-1.497,2.611-1.488,5.823,0.02,8.428c1.51,2.604,4.294,4.208,7.303,4.208h66.001
			c-0.225,1.79-0.353,3.607-0.353,5.456c0,3.954,0.54,7.782,1.531,11.426H89.516c-3.001,0-5.799-1.614-7.303-4.208
			c-1.505-2.595-1.513-5.824-0.021-8.428l69.406-121.163c1.501-2.618,4.307-4.245,7.326-4.245h209.314
			c2.504,0,4.868,1.112,6.483,3.051c0.341,0.41,0.72,0.786,1.133,1.124c1.08,0.887,1.9,1.995,2.437,3.293l47.896,115.926
			c0.862,2.084,0.86,4.378-0.006,6.46c-0.866,2.083-2.488,3.704-4.571,4.564c-1.037,0.429-2.119,0.645-3.219,0.645
			c-3.432,0-6.498-2.051-7.809-5.225l-40.228-97.367c-1.037-2.508-3.214-4.365-5.855-4.99
			C361.856,233.454,359.079,234.135,357.027,235.912z M184.641,310.876h-0.123c-0.028-0.12-0.055-0.243-0.084-0.362L184.641,310.876
			z M167.028,310.876h-11.859c-2.532-6.958-6.243-13.449-10.967-19.194l5.916-10.328
			C157.906,289.832,163.688,299.925,167.028,310.876z M158.835,266.137l0.089-0.155l0.304,0.529
			C159.098,266.385,158.964,266.262,158.835,266.137z M136.736,310.876h-3.53l1.772-3.093
			C135.602,308.793,136.187,309.824,136.736,310.876z M441.788,323.543l-15.837-38.333c23.214,3.645,41.029,23.782,41.029,48.004
			c0,26.797-21.8,48.597-48.597,48.597c-26.797,0-48.597-21.8-48.597-48.597c0-10.424,3.337-20.391,9.369-28.629l15.823,38.297
			c3.931,9.513,13.12,15.659,23.411,15.659c3.321,0,6.573-0.647,9.665-1.924c6.252-2.584,11.123-7.446,13.718-13.694
			C444.365,336.678,444.371,329.794,441.788,323.543z M418.383,409.948c-42.312,0-76.734-34.422-76.734-76.734
			c0-21.996,9.453-42.746,25.687-57.235l4.601,11.137c-12.16,12.232-19.033,28.695-19.033,46.098
			c0,36.105,29.374,65.479,65.479,65.479s65.479-29.374,65.479-65.479c0-35.988-29.185-65.279-65.127-65.47l-4.601-11.137
			c1.415-0.077,2.832-0.127,4.249-0.127c42.312,0,76.734,34.422,76.734,76.734S460.695,409.948,418.383,409.948z"/>
	</g>
</g>
<g>
</g>
<g>
</g>
<g>
</g>
<g>
</g>
<g>
</g>
<g>
</g>
<g>
</g>
<g>
</g>
<g>
</g>
<g>
</g>
<g>
</g>
<g>
</g>
<g>
</g>
<g>
</g>
<g>
</g>
</svg>
