<?xml version="1.0" encoding="iso-8859-1"?>
<!-- Generator: Adobe Illustrator 19.0.0, SVG Export Plug-In . SVG Version: 6.00 Build 0)  -->
<svg version="1.1" id="Layer_1" xmlns="http://www.w3.org/2000/svg" xmlns:xlink="http://www.w3.org/1999/xlink" x="0px" y="0px"
	 viewBox="0 0 512 512" style="enable-background:new 0 0 512 512;" xml:space="preserve">
<g>
	<g>
		<path d="M463.84,395.328l-9.598-32.945c2.553-0.238,5.069-0.641,7.671-0.641c9.217,0,16.696-7.473,16.696-16.696
			c0-9.223-7.479-16.696-16.696-16.696c-5.825,0-11.557,0.503-17.194,1.347L365.56,57.997l33.625-8.407
			c8.946-2.234,14.381-11.299,12.141-20.244c-2.228-8.945-11.304-14.397-20.25-12.147L257.512,50.591
			c-8.946,2.234-14.381,11.298-12.141,20.244c2.242,8.992,11.373,14.384,20.25,12.147l67.516-16.879l79.608,273.243
			c-12,5.596-22.943,13.182-32.396,22.397H131.65c-21.343-20.803-50.341-33.391-81.563-33.391c-9.217,0-16.696,7.473-16.696,16.696
			c0,9.223,7.479,16.696,16.696,16.696c37.446,0,70.544,25.212,80.489,61.326c0.524,1.9,1.272,3.663,1.968,5.456H97.097
			c-6.915-19.391-25.275-33.391-47.01-33.391C22.468,395.134,0,417.602,0,445.221c0,27.619,22.468,50.087,50.087,50.087
			c21.737,0,40.095-14,47.01-33.391h235.619c22.717,0,42.282-15.614,48.707-38.859c6.173-22.408,21.283-40.589,40.797-51.182
			l9.744,33.444c-12.152,9.147-20.138,23.553-20.138,39.901c0,27.619,22.468,50.087,50.087,50.087
			c27.619,0,50.087-22.468,50.087-50.087C512,418.26,490.551,396.368,463.84,395.328z"/>
	</g>
</g>
<g>
</g>
<g>
</g>
<g>
</g>
<g>
</g>
<g>
</g>
<g>
</g>
<g>
</g>
<g>
</g>
<g>
</g>
<g>
</g>
<g>
</g>
<g>
</g>
<g>
</g>
<g>
</g>
<g>
</g>
</svg>
